<?xml version="1.0" encoding="utf-8"?>
<!-- Generator: Adobe Illustrator 23.0.1, SVG Export Plug-In . SVG Version: 6.00 Build 0)  -->
<svg version="1.1" id="Layer_1" xmlns="http://www.w3.org/2000/svg" xmlns:xlink="http://www.w3.org/1999/xlink" x="0px" y="0px"
	 viewBox="0 0 118 28" style="enable-background:new 0 0 118 28;" xml:space="preserve">
<style type="text/css">
	.st0{fill:#FFFFFF;}
</style>
<g>
	<path class="st0" d="M16.7,8.3h-2.9c-0.7,0-1.1,0.3-1.1,1v8.9L6.7,9.1C6.3,8.5,6,8.4,5.2,8.3H2.3c-0.8,0-1.1,0.3-1.1,1v16.9
		c0,0.7,0.4,1,1.1,1h2.9c0.8,0,1.1-0.3,1.1-1v-8.8l6,9.1c0.4,0.7,0.7,0.8,1.5,0.8h2.8c0.8,0,1.1-0.3,1.1-1V9.4
		C17.8,8.7,17.4,8.3,16.7,8.3z"/>
	<circle class="st0" cx="3.8" cy="3.2" r="3.2"/>
	<path class="st0" d="M37,14.7c0.8-1.1,1.9-1.7,3.4-1.7c2.7,0,4.3,1.8,4.3,4.3V23c0,0.3-0.1,0.4-0.4,0.4h-0.9
		c-0.3,0-0.4-0.1-0.4-0.4v-5.7c0-1.4-1.1-2.5-2.6-2.5c-1.4,0-2.5,1.1-2.5,2.4V23c0,0.3-0.1,0.4-0.4,0.4h-0.9c-0.3,0-0.4-0.1-0.4-0.4
		v-5.7c0-1.4-1.1-2.5-2.5-2.5c-1.4,0-2.5,1.1-2.5,2.4v5.9c0,0.3-0.1,0.4-0.4,0.4h-0.9c-0.3,0-0.4-0.1-0.4-0.4v-9.4
		c0-0.3,0.1-0.4,0.4-0.4h0.9c0.2,0,0.3,0.1,0.3,0.3v0.7c0.7-0.7,1.6-1.2,2.7-1.2C35.1,13,36.2,13.6,37,14.7L37,14.7z M46.1,18.3
		c0-2.9,2.3-5.3,5.3-5.3c1.4,0,2.7,0.6,3.7,1.7v-1.2c0-0.3,0.1-0.4,0.4-0.4h0.8c0.3,0,0.4,0.1,0.4,0.4v9.4c0,0.3-0.1,0.4-0.4,0.4
		h-0.8c-0.3,0-0.4-0.1-0.4-0.4V22c-1,1.1-2.2,1.7-3.6,1.7C48.4,23.6,46.1,21.2,46.1,18.3L46.1,18.3z M54.9,18.3c0-2-1.6-3.5-3.6-3.5
		c-1.9,0-3.5,1.6-3.5,3.5c0,2,1.6,3.5,3.5,3.5C53.3,21.9,54.9,20.3,54.9,18.3C54.9,18.3,54.9,18.3,54.9,18.3z M60.2,21.9v5.3
		c0,0.3-0.1,0.4-0.4,0.4h-0.9c-0.3,0-0.4-0.1-0.4-0.4V13.6c0-0.3,0.1-0.4,0.4-0.4h0.8c0.3,0,0.4,0.1,0.4,0.4v1.1
		c1-1.1,2.2-1.7,3.6-1.7c2.9,0,5.3,2.4,5.3,5.3s-2.3,5.3-5.3,5.3C62.3,23.6,61.1,23.1,60.2,21.9z M63.7,14.8c-1.9,0-3.5,1.6-3.5,3.5
		c0,2,1.6,3.5,3.5,3.5c2,0,3.5-1.6,3.5-3.5C67.3,16.4,65.7,14.8,63.7,14.8z M72,21.9v5.3c0,0.3-0.1,0.4-0.4,0.4h-0.9
		c-0.3,0-0.4-0.1-0.4-0.4V13.6c0-0.3,0.1-0.4,0.4-0.4h0.8c0.3,0,0.4,0.1,0.4,0.4v1.1c1-1.1,2.2-1.7,3.6-1.7c2.9,0,5.3,2.4,5.3,5.3
		s-2.3,5.3-5.3,5.3C74.2,23.6,73,23.1,72,21.9z M75.6,14.8c-1.9,0-3.5,1.6-3.5,3.5c0,2,1.6,3.5,3.5,3.5c2,0,3.5-1.6,3.5-3.5
		C79.1,16.4,77.6,14.8,75.6,14.8L75.6,14.8z M91.4,19h-7.6c0.2,1.7,1.7,3,3.6,3c1,0,1.9-0.2,2.7-0.8c0.2-0.1,0.3-0.2,0.4-0.2
		c0.1,0,0.2,0.1,0.3,0.2l0.3,0.6c0.1,0.1,0.1,0.2,0.1,0.2c0,0.1-0.1,0.3-0.3,0.4c-1.1,0.7-2.3,1.2-3.6,1.2c-3.1,0-5.4-2.3-5.4-5.3
		c0-3,2.3-5.3,5.2-5.3c2.9,0,4.7,2.1,4.7,5.2C91.9,18.5,91.9,19,91.4,19L91.4,19z M83.8,17.6h6.3c-0.2-1.9-1.3-3-3-3
		C85.4,14.6,83.9,15.9,83.8,17.6L83.8,17.6z M92.8,18.3c0-2.9,2.3-5.3,5.3-5.3c1.4,0,2.6,0.5,3.5,1.7V9.5c0-0.3,0.1-0.4,0.4-0.4h0.9
		c0.3,0,0.4,0.1,0.4,0.4v13.5c0,0.3-0.1,0.4-0.4,0.4h-0.8c-0.3,0-0.4-0.1-0.4-0.4v-1.2c-1,1.1-2.2,1.7-3.6,1.7
		C95.2,23.6,92.8,21.2,92.8,18.3z M101.6,18.3c0-2-1.6-3.5-3.6-3.5c-1.9,0-3.5,1.6-3.5,3.5c0,2,1.6,3.5,3.5,3.5
		C100,21.9,101.6,20.3,101.6,18.3C101.6,18.4,101.6,18.3,101.6,18.3L101.6,18.3z M105.4,11.2c0-0.5,0.4-0.9,0.9-1c0,0,0,0,0,0
		c0.5,0,1,0.4,1,0.9c0,0,0,0,0,0c0,0.5-0.4,0.9-0.9,1c0,0,0,0,0,0C105.8,12.2,105.4,11.8,105.4,11.2z M105.5,23v-9.4
		c0-0.3,0.1-0.4,0.4-0.4h0.9c0.3,0,0.4,0.1,0.4,0.4V23c0,0.3-0.1,0.4-0.4,0.4h-0.9C105.6,23.4,105.5,23.3,105.5,23z M110.9,13.5v0.7
		c0.7-0.8,1.6-1.2,2.7-1.2c2.6,0,4.2,1.8,4.2,4.2V23c0,0.3-0.1,0.4-0.4,0.4h-0.9c-0.3,0-0.4-0.1-0.4-0.4v-5.7c0-1.4-1.1-2.5-2.5-2.5
		c-1.4,0-2.5,1.1-2.5,2.4v5.9c0,0.3-0.1,0.4-0.4,0.4h-0.9c-0.3,0-0.4-0.1-0.4-0.4v-9.5c0-0.3,0.1-0.4,0.4-0.4h0.8
		C110.7,13.2,110.9,13.3,110.9,13.5z"/>
</g>
</svg>
