<svg width="27" height="27" viewBox="0 0 27 27" fill="none" xmlns="http://www.w3.org/2000/svg">
<path d="M13.476 0.421866C9.98135 0.428141 6.80838 1.80525 4.46581 4.04393L2.58246 2.16057C1.78511 1.36323 0.421875 1.92791 0.421875 3.05547V10.125C0.421875 10.824 0.988506 11.3906 1.6875 11.3906H8.75702C9.88458 11.3906 10.4493 10.0274 9.65197 9.23004L7.45031 7.02838C9.07791 5.50441 11.184 4.66023 13.4214 4.64093C18.294 4.59885 22.4012 8.54206 22.3591 13.5763C22.3191 18.352 18.4473 22.3594 13.5 22.3594C11.3312 22.3594 9.28141 21.5853 7.666 20.1679C7.41588 19.9485 7.03814 19.9619 6.80284 20.1971L4.71129 22.2886C4.45437 22.5456 4.46708 22.9644 4.73671 23.208C7.05575 25.3026 10.1289 26.5781 13.5 26.5781C20.7228 26.5781 26.5781 20.7229 26.5781 13.5001C26.5782 6.28556 20.6905 0.408946 13.476 0.421866Z" fill="#94A3B8"/>
</svg>
