<svg width="664" height="109" viewBox="0 0 664 109" fill="none" xmlns="http://www.w3.org/2000/svg">
<circle cx="287.5" cy="54.5" r="2.5" fill="#0E7490" fill-opacity="0.3"/>
<circle cx="287.5" cy="67.5" r="2.5" fill="#0E7490" fill-opacity="0.3"/>
<circle cx="287.5" cy="80.5" r="2.5" fill="#0E7490" fill-opacity="0.3"/>
<circle cx="287.5" cy="93.5" r="2.5" fill="#0E7490" fill-opacity="0.3"/>
<circle cx="287.5" cy="41.5" r="2.5" fill="#0E7490" fill-opacity="0.3"/>
<circle cx="287.5" cy="106.5" r="2.5" fill="#0E7490" fill-opacity="0.3"/>
<circle cx="227.5" cy="54.5" r="2.5" fill="#0E7490" fill-opacity="0.3"/>
<circle cx="242.5" cy="54.5" r="2.5" fill="#0E7490" fill-opacity="0.3"/>
<circle cx="227.5" cy="67.5" r="2.5" fill="#0E7490" fill-opacity="0.3"/>
<circle cx="242.5" cy="67.5" r="2.5" fill="#0E7490" fill-opacity="0.3"/>
<circle cx="227.5" cy="80.5" r="2.5" fill="#0E7490" fill-opacity="0.3"/>
<circle cx="242.5" cy="80.5" r="2.5" fill="#0E7490" fill-opacity="0.3"/>
<circle cx="227.5" cy="93.5" r="2.5" fill="#0E7490" fill-opacity="0.3"/>
<circle cx="242.5" cy="93.5" r="2.5" fill="#0E7490" fill-opacity="0.3"/>
<circle cx="257.5" cy="54.5" r="2.5" fill="#0E7490" fill-opacity="0.3"/>
<circle cx="272.5" cy="54.5" r="2.5" fill="#0E7490" fill-opacity="0.3"/>
<circle cx="257.5" cy="67.5" r="2.5" fill="#0E7490" fill-opacity="0.3"/>
<circle cx="272.5" cy="67.5" r="2.5" fill="#0E7490" fill-opacity="0.3"/>
<circle cx="257.5" cy="80.5" r="2.5" fill="#0E7490" fill-opacity="0.3"/>
<circle cx="272.5" cy="80.5" r="2.5" fill="#0E7490" fill-opacity="0.3"/>
<circle cx="257.5" cy="93.5" r="2.5" fill="#0E7490" fill-opacity="0.3"/>
<circle cx="272.5" cy="93.5" r="2.5" fill="#0E7490" fill-opacity="0.3"/>
<circle cx="212.5" cy="54.5" r="2.5" fill="#0E7490" fill-opacity="0.3"/>
<circle cx="212.5" cy="67.5" r="2.5" fill="#0E7490" fill-opacity="0.3"/>
<circle cx="212.5" cy="80.5" r="2.5" fill="#0E7490" fill-opacity="0.3"/>
<circle cx="212.5" cy="93.5" r="2.5" fill="#0E7490" fill-opacity="0.3"/>
<circle cx="227.5" cy="41.5" r="2.5" fill="#0E7490" fill-opacity="0.3"/>
<circle cx="242.5" cy="41.5" r="2.5" fill="#0E7490" fill-opacity="0.3"/>
<circle cx="257.5" cy="41.5" r="2.5" fill="#0E7490" fill-opacity="0.3"/>
<circle cx="272.5" cy="41.5" r="2.5" fill="#0E7490" fill-opacity="0.3"/>
<circle cx="227.5" cy="106.5" r="2.5" fill="#0E7490" fill-opacity="0.3"/>
<circle cx="242.5" cy="106.5" r="2.5" fill="#0E7490" fill-opacity="0.3"/>
<circle cx="257.5" cy="106.5" r="2.5" fill="#0E7490" fill-opacity="0.3"/>
<circle cx="272.5" cy="106.5" r="2.5" fill="#0E7490" fill-opacity="0.3"/>
<circle cx="212.5" cy="106.5" r="2.5" fill="#0E7490" fill-opacity="0.3"/>
<circle cx="152.5" cy="54.5" r="2.5" fill="#0E7490" fill-opacity="0.3"/>
<circle cx="167.5" cy="54.5" r="2.5" fill="#0E7490" fill-opacity="0.3"/>
<circle cx="152.5" cy="67.5" r="2.5" fill="#0E7490" fill-opacity="0.3"/>
<circle cx="167.5" cy="67.5" r="2.5" fill="#0E7490" fill-opacity="0.3"/>
<circle cx="152.5" cy="80.5" r="2.5" fill="#0E7490" fill-opacity="0.3"/>
<circle cx="167.5" cy="80.5" r="2.5" fill="#0E7490" fill-opacity="0.3"/>
<circle cx="152.5" cy="93.5" r="2.5" fill="#0E7490" fill-opacity="0.3"/>
<circle cx="167.5" cy="93.5" r="2.5" fill="#0E7490" fill-opacity="0.3"/>
<circle cx="182.5" cy="54.5" r="2.5" fill="#0E7490" fill-opacity="0.3"/>
<circle cx="197.5" cy="54.5" r="2.5" fill="#0E7490" fill-opacity="0.3"/>
<circle cx="182.5" cy="67.5" r="2.5" fill="#0E7490" fill-opacity="0.3"/>
<circle cx="197.5" cy="67.5" r="2.5" fill="#0E7490" fill-opacity="0.3"/>
<circle cx="182.5" cy="80.5" r="2.5" fill="#0E7490" fill-opacity="0.3"/>
<circle cx="197.5" cy="80.5" r="2.5" fill="#0E7490" fill-opacity="0.3"/>
<circle cx="182.5" cy="93.5" r="2.5" fill="#0E7490" fill-opacity="0.3"/>
<circle cx="197.5" cy="93.5" r="2.5" fill="#0E7490" fill-opacity="0.3"/>
<circle cx="137.5" cy="67.5" r="2.5" fill="#0E7490" fill-opacity="0.3"/>
<circle cx="137.5" cy="80.5" r="2.5" fill="#0E7490" fill-opacity="0.3"/>
<circle cx="137.5" cy="93.5" r="2.5" fill="#0E7490" fill-opacity="0.3"/>
<circle cx="152.5" cy="106.5" r="2.5" fill="#0E7490" fill-opacity="0.3"/>
<circle cx="167.5" cy="106.5" r="2.5" fill="#0E7490" fill-opacity="0.3"/>
<circle cx="182.5" cy="106.5" r="2.5" fill="#0E7490" fill-opacity="0.3"/>
<circle cx="197.5" cy="106.5" r="2.5" fill="#0E7490" fill-opacity="0.3"/>
<circle cx="137.5" cy="106.5" r="2.5" fill="#0E7490" fill-opacity="0.3"/>
<circle cx="107.5" cy="67.5" r="2.5" fill="#0E7490" fill-opacity="0.3"/>
<circle cx="122.5" cy="67.5" r="2.5" fill="#0E7490" fill-opacity="0.3"/>
<circle cx="107.5" cy="80.5" r="2.5" fill="#0E7490" fill-opacity="0.3"/>
<circle cx="122.5" cy="80.5" r="2.5" fill="#0E7490" fill-opacity="0.3"/>
<circle cx="107.5" cy="93.5" r="2.5" fill="#0E7490" fill-opacity="0.3"/>
<circle cx="122.5" cy="93.5" r="2.5" fill="#0E7490" fill-opacity="0.3"/>
<circle cx="92.5" cy="67.5" r="2.5" fill="#0E7490" fill-opacity="0.3"/>
<circle cx="92.5" cy="80.5" r="2.5" fill="#0E7490" fill-opacity="0.3"/>
<circle cx="92.5" cy="93.5" r="2.5" fill="#0E7490" fill-opacity="0.3"/>
<circle cx="107.5" cy="106.5" r="2.5" fill="#0E7490" fill-opacity="0.3"/>
<circle cx="122.5" cy="106.5" r="2.5" fill="#0E7490" fill-opacity="0.3"/>
<circle cx="92.5" cy="106.5" r="2.5" fill="#0E7490" fill-opacity="0.3"/>
<circle cx="47.5" cy="80.5" r="2.5" fill="#0E7490" fill-opacity="0.3"/>
<circle cx="32.5" cy="93.5" r="2.5" fill="#0E7490" fill-opacity="0.3"/>
<circle cx="47.5" cy="93.5" r="2.5" fill="#0E7490" fill-opacity="0.3"/>
<circle cx="62.5" cy="80.5" r="2.5" fill="#0E7490" fill-opacity="0.3"/>
<circle cx="77.5" cy="80.5" r="2.5" fill="#0E7490" fill-opacity="0.3"/>
<circle cx="62.5" cy="93.5" r="2.5" fill="#0E7490" fill-opacity="0.3"/>
<circle cx="77.5" cy="93.5" r="2.5" fill="#0E7490" fill-opacity="0.3"/>
<circle cx="17.5" cy="93.5" r="2.5" fill="#0E7490" fill-opacity="0.3"/>
<circle cx="32.5" cy="106.5" r="2.5" fill="#0E7490" fill-opacity="0.3"/>
<circle cx="47.5" cy="106.5" r="2.5" fill="#0E7490" fill-opacity="0.3"/>
<circle cx="62.5" cy="106.5" r="2.5" fill="#0E7490" fill-opacity="0.3"/>
<circle cx="77.5" cy="106.5" r="2.5" fill="#0E7490" fill-opacity="0.3"/>
<circle cx="17.5" cy="106.5" r="2.5" fill="#0E7490" fill-opacity="0.3"/>
<circle cx="2.5" cy="106.5" r="2.5" fill="#0E7490" fill-opacity="0.3"/>
<circle cx="617.5" cy="54.5" r="2.5" fill="#0E7490" fill-opacity="0.3"/>
<circle cx="617.5" cy="67.5" r="2.5" fill="#0E7490" fill-opacity="0.3"/>
<circle cx="617.5" cy="80.5" r="2.5" fill="#0E7490" fill-opacity="0.3"/>
<circle cx="617.5" cy="93.5" r="2.5" fill="#0E7490" fill-opacity="0.3"/>
<circle cx="617.5" cy="2.5" r="2.5" fill="#0E7490" fill-opacity="0.3"/>
<circle cx="617.5" cy="15.5" r="2.5" fill="#0E7490" fill-opacity="0.3"/>
<circle cx="617.5" cy="28.5" r="2.5" fill="#0E7490" fill-opacity="0.3"/>
<circle cx="617.5" cy="41.5" r="2.5" fill="#0E7490" fill-opacity="0.3"/>
<circle cx="617.5" cy="106.5" r="2.5" fill="#0E7490" fill-opacity="0.3"/>
<circle cx="557.5" cy="54.5" r="2.5" fill="#0E7490" fill-opacity="0.3"/>
<circle cx="572.5" cy="54.5" r="2.5" fill="#0E7490" fill-opacity="0.3"/>
<circle cx="557.5" cy="67.5" r="2.5" fill="#0E7490" fill-opacity="0.3"/>
<circle cx="572.5" cy="67.5" r="2.5" fill="#0E7490" fill-opacity="0.3"/>
<circle cx="557.5" cy="80.5" r="2.5" fill="#0E7490" fill-opacity="0.3"/>
<circle cx="572.5" cy="80.5" r="2.5" fill="#0E7490" fill-opacity="0.3"/>
<circle cx="557.5" cy="93.5" r="2.5" fill="#0E7490" fill-opacity="0.3"/>
<circle cx="572.5" cy="93.5" r="2.5" fill="#0E7490" fill-opacity="0.3"/>
<circle cx="587.5" cy="54.5" r="2.5" fill="#0E7490" fill-opacity="0.3"/>
<circle cx="602.5" cy="54.5" r="2.5" fill="#0E7490" fill-opacity="0.3"/>
<circle cx="587.5" cy="67.5" r="2.5" fill="#0E7490" fill-opacity="0.3"/>
<circle cx="602.5" cy="67.5" r="2.5" fill="#0E7490" fill-opacity="0.3"/>
<circle cx="587.5" cy="80.5" r="2.5" fill="#0E7490" fill-opacity="0.3"/>
<circle cx="602.5" cy="80.5" r="2.5" fill="#0E7490" fill-opacity="0.3"/>
<circle cx="587.5" cy="93.5" r="2.5" fill="#0E7490" fill-opacity="0.3"/>
<circle cx="602.5" cy="93.5" r="2.5" fill="#0E7490" fill-opacity="0.3"/>
<circle cx="542.5" cy="54.5" r="2.5" fill="#0E7490" fill-opacity="0.3"/>
<circle cx="542.5" cy="67.5" r="2.5" fill="#0E7490" fill-opacity="0.3"/>
<circle cx="542.5" cy="80.5" r="2.5" fill="#0E7490" fill-opacity="0.3"/>
<circle cx="542.5" cy="93.5" r="2.5" fill="#0E7490" fill-opacity="0.3"/>
<circle cx="557.5" cy="2.5" r="2.5" fill="#0E7490" fill-opacity="0.3"/>
<circle cx="572.5" cy="2.5" r="2.5" fill="#0E7490" fill-opacity="0.3"/>
<circle cx="557.5" cy="15.5" r="2.5" fill="#0E7490" fill-opacity="0.3"/>
<circle cx="572.5" cy="15.5" r="2.5" fill="#0E7490" fill-opacity="0.3"/>
<circle cx="557.5" cy="28.5" r="2.5" fill="#0E7490" fill-opacity="0.3"/>
<circle cx="572.5" cy="28.5" r="2.5" fill="#0E7490" fill-opacity="0.3"/>
<circle cx="557.5" cy="41.5" r="2.5" fill="#0E7490" fill-opacity="0.3"/>
<circle cx="572.5" cy="41.5" r="2.5" fill="#0E7490" fill-opacity="0.3"/>
<circle cx="587.5" cy="2.5" r="2.5" fill="#0E7490" fill-opacity="0.3"/>
<circle cx="602.5" cy="2.5" r="2.5" fill="#0E7490" fill-opacity="0.3"/>
<circle cx="587.5" cy="15.5" r="2.5" fill="#0E7490" fill-opacity="0.3"/>
<circle cx="602.5" cy="15.5" r="2.5" fill="#0E7490" fill-opacity="0.3"/>
<circle cx="587.5" cy="28.5" r="2.5" fill="#0E7490" fill-opacity="0.3"/>
<circle cx="602.5" cy="28.5" r="2.5" fill="#0E7490" fill-opacity="0.3"/>
<circle cx="587.5" cy="41.5" r="2.5" fill="#0E7490" fill-opacity="0.3"/>
<circle cx="602.5" cy="41.5" r="2.5" fill="#0E7490" fill-opacity="0.3"/>
<circle cx="542.5" cy="2.5" r="2.5" fill="#0E7490" fill-opacity="0.3"/>
<circle cx="542.5" cy="15.5" r="2.5" fill="#0E7490" fill-opacity="0.3"/>
<circle cx="542.5" cy="28.5" r="2.5" fill="#0E7490" fill-opacity="0.3"/>
<circle cx="542.5" cy="41.5" r="2.5" fill="#0E7490" fill-opacity="0.3"/>
<circle cx="557.5" cy="106.5" r="2.5" fill="#0E7490" fill-opacity="0.3"/>
<circle cx="572.5" cy="106.5" r="2.5" fill="#0E7490" fill-opacity="0.3"/>
<circle cx="587.5" cy="106.5" r="2.5" fill="#0E7490" fill-opacity="0.3"/>
<circle cx="602.5" cy="106.5" r="2.5" fill="#0E7490" fill-opacity="0.3"/>
<circle cx="542.5" cy="106.5" r="2.5" fill="#0E7490" fill-opacity="0.3"/>
<circle cx="482.5" cy="54.5" r="2.5" fill="#0E7490" fill-opacity="0.3"/>
<circle cx="497.5" cy="54.5" r="2.5" fill="#0E7490" fill-opacity="0.3"/>
<circle cx="482.5" cy="67.5" r="2.5" fill="#0E7490" fill-opacity="0.3"/>
<circle cx="497.5" cy="67.5" r="2.5" fill="#0E7490" fill-opacity="0.3"/>
<circle cx="482.5" cy="80.5" r="2.5" fill="#0E7490" fill-opacity="0.3"/>
<circle cx="497.5" cy="80.5" r="2.5" fill="#0E7490" fill-opacity="0.3"/>
<circle cx="482.5" cy="93.5" r="2.5" fill="#0E7490" fill-opacity="0.3"/>
<circle cx="497.5" cy="93.5" r="2.5" fill="#0E7490" fill-opacity="0.3"/>
<circle cx="512.5" cy="54.5" r="2.5" fill="#0E7490" fill-opacity="0.3"/>
<circle cx="527.5" cy="54.5" r="2.5" fill="#0E7490" fill-opacity="0.3"/>
<circle cx="512.5" cy="67.5" r="2.5" fill="#0E7490" fill-opacity="0.3"/>
<circle cx="527.5" cy="67.5" r="2.5" fill="#0E7490" fill-opacity="0.3"/>
<circle cx="512.5" cy="80.5" r="2.5" fill="#0E7490" fill-opacity="0.3"/>
<circle cx="527.5" cy="80.5" r="2.5" fill="#0E7490" fill-opacity="0.3"/>
<circle cx="512.5" cy="93.5" r="2.5" fill="#0E7490" fill-opacity="0.3"/>
<circle cx="527.5" cy="93.5" r="2.5" fill="#0E7490" fill-opacity="0.3"/>
<circle cx="467.5" cy="54.5" r="2.5" fill="#0E7490" fill-opacity="0.3"/>
<circle cx="467.5" cy="67.5" r="2.5" fill="#0E7490" fill-opacity="0.3"/>
<circle cx="467.5" cy="80.5" r="2.5" fill="#0E7490" fill-opacity="0.3"/>
<circle cx="467.5" cy="93.5" r="2.5" fill="#0E7490" fill-opacity="0.3"/>
<circle cx="482.5" cy="15.5" r="2.5" fill="#0E7490" fill-opacity="0.3"/>
<circle cx="497.5" cy="15.5" r="2.5" fill="#0E7490" fill-opacity="0.3"/>
<circle cx="482.5" cy="28.5" r="2.5" fill="#0E7490" fill-opacity="0.3"/>
<circle cx="497.5" cy="28.5" r="2.5" fill="#0E7490" fill-opacity="0.3"/>
<circle cx="482.5" cy="41.5" r="2.5" fill="#0E7490" fill-opacity="0.3"/>
<circle cx="497.5" cy="41.5" r="2.5" fill="#0E7490" fill-opacity="0.3"/>
<circle cx="512.5" cy="15.5" r="2.5" fill="#0E7490" fill-opacity="0.3"/>
<circle cx="527.5" cy="15.5" r="2.5" fill="#0E7490" fill-opacity="0.3"/>
<circle cx="512.5" cy="28.5" r="2.5" fill="#0E7490" fill-opacity="0.3"/>
<circle cx="527.5" cy="28.5" r="2.5" fill="#0E7490" fill-opacity="0.3"/>
<circle cx="512.5" cy="41.5" r="2.5" fill="#0E7490" fill-opacity="0.3"/>
<circle cx="527.5" cy="41.5" r="2.5" fill="#0E7490" fill-opacity="0.3"/>
<circle cx="467.5" cy="15.5" r="2.5" fill="#0E7490" fill-opacity="0.3"/>
<circle cx="467.5" cy="28.5" r="2.5" fill="#0E7490" fill-opacity="0.3"/>
<circle cx="467.5" cy="41.5" r="2.5" fill="#0E7490" fill-opacity="0.3"/>
<circle cx="482.5" cy="106.5" r="2.5" fill="#0E7490" fill-opacity="0.3"/>
<circle cx="497.5" cy="106.5" r="2.5" fill="#0E7490" fill-opacity="0.3"/>
<circle cx="512.5" cy="106.5" r="2.5" fill="#0E7490" fill-opacity="0.3"/>
<circle cx="527.5" cy="106.5" r="2.5" fill="#0E7490" fill-opacity="0.3"/>
<circle cx="467.5" cy="106.5" r="2.5" fill="#0E7490" fill-opacity="0.3"/>
<circle cx="452.5" cy="54.5" r="2.5" fill="#0E7490" fill-opacity="0.3"/>
<circle cx="452.5" cy="67.5" r="2.5" fill="#0E7490" fill-opacity="0.3"/>
<circle cx="452.5" cy="80.5" r="2.5" fill="#0E7490" fill-opacity="0.3"/>
<circle cx="452.5" cy="93.5" r="2.5" fill="#0E7490" fill-opacity="0.3"/>
<circle cx="452.5" cy="15.5" r="2.5" fill="#0E7490" fill-opacity="0.3"/>
<circle cx="452.5" cy="28.5" r="2.5" fill="#0E7490" fill-opacity="0.3"/>
<circle cx="452.5" cy="41.5" r="2.5" fill="#0E7490" fill-opacity="0.3"/>
<circle cx="452.5" cy="106.5" r="2.5" fill="#0E7490" fill-opacity="0.3"/>
<circle cx="392.5" cy="54.5" r="2.5" fill="#0E7490" fill-opacity="0.3"/>
<circle cx="407.5" cy="54.5" r="2.5" fill="#0E7490" fill-opacity="0.3"/>
<circle cx="392.5" cy="67.5" r="2.5" fill="#0E7490" fill-opacity="0.3"/>
<circle cx="407.5" cy="67.5" r="2.5" fill="#0E7490" fill-opacity="0.3"/>
<circle cx="392.5" cy="80.5" r="2.5" fill="#0E7490" fill-opacity="0.3"/>
<circle cx="407.5" cy="80.5" r="2.5" fill="#0E7490" fill-opacity="0.3"/>
<circle cx="392.5" cy="93.5" r="2.5" fill="#0E7490" fill-opacity="0.3"/>
<circle cx="407.5" cy="93.5" r="2.5" fill="#0E7490" fill-opacity="0.3"/>
<circle cx="422.5" cy="54.5" r="2.5" fill="#0E7490" fill-opacity="0.3"/>
<circle cx="437.5" cy="54.5" r="2.5" fill="#0E7490" fill-opacity="0.3"/>
<circle cx="422.5" cy="67.5" r="2.5" fill="#0E7490" fill-opacity="0.3"/>
<circle cx="437.5" cy="67.5" r="2.5" fill="#0E7490" fill-opacity="0.3"/>
<circle cx="422.5" cy="80.5" r="2.5" fill="#0E7490" fill-opacity="0.3"/>
<circle cx="437.5" cy="80.5" r="2.5" fill="#0E7490" fill-opacity="0.3"/>
<circle cx="422.5" cy="93.5" r="2.5" fill="#0E7490" fill-opacity="0.3"/>
<circle cx="437.5" cy="93.5" r="2.5" fill="#0E7490" fill-opacity="0.3"/>
<circle cx="377.5" cy="54.5" r="2.5" fill="#0E7490" fill-opacity="0.3"/>
<circle cx="377.5" cy="67.5" r="2.5" fill="#0E7490" fill-opacity="0.3"/>
<circle cx="377.5" cy="80.5" r="2.5" fill="#0E7490" fill-opacity="0.3"/>
<circle cx="377.5" cy="93.5" r="2.5" fill="#0E7490" fill-opacity="0.3"/>
<circle cx="392.5" cy="28.5" r="2.5" fill="#0E7490" fill-opacity="0.3"/>
<circle cx="407.5" cy="28.5" r="2.5" fill="#0E7490" fill-opacity="0.3"/>
<circle cx="392.5" cy="41.5" r="2.5" fill="#0E7490" fill-opacity="0.3"/>
<circle cx="407.5" cy="41.5" r="2.5" fill="#0E7490" fill-opacity="0.3"/>
<circle cx="422.5" cy="15.5" r="2.5" fill="#0E7490" fill-opacity="0.3"/>
<circle cx="437.5" cy="15.5" r="2.5" fill="#0E7490" fill-opacity="0.3"/>
<circle cx="422.5" cy="28.5" r="2.5" fill="#0E7490" fill-opacity="0.3"/>
<circle cx="437.5" cy="28.5" r="2.5" fill="#0E7490" fill-opacity="0.3"/>
<circle cx="422.5" cy="41.5" r="2.5" fill="#0E7490" fill-opacity="0.3"/>
<circle cx="437.5" cy="41.5" r="2.5" fill="#0E7490" fill-opacity="0.3"/>
<circle cx="377.5" cy="28.5" r="2.5" fill="#0E7490" fill-opacity="0.3"/>
<circle cx="377.5" cy="41.5" r="2.5" fill="#0E7490" fill-opacity="0.3"/>
<circle cx="392.5" cy="106.5" r="2.5" fill="#0E7490" fill-opacity="0.3"/>
<circle cx="407.5" cy="106.5" r="2.5" fill="#0E7490" fill-opacity="0.3"/>
<circle cx="422.5" cy="106.5" r="2.5" fill="#0E7490" fill-opacity="0.3"/>
<circle cx="437.5" cy="106.5" r="2.5" fill="#0E7490" fill-opacity="0.3"/>
<circle cx="377.5" cy="106.5" r="2.5" fill="#0E7490" fill-opacity="0.3"/>
<circle cx="317.5" cy="54.5" r="2.5" fill="#0E7490" fill-opacity="0.3"/>
<circle cx="332.5" cy="54.5" r="2.5" fill="#0E7490" fill-opacity="0.3"/>
<circle cx="317.5" cy="67.5" r="2.5" fill="#0E7490" fill-opacity="0.3"/>
<circle cx="332.5" cy="67.5" r="2.5" fill="#0E7490" fill-opacity="0.3"/>
<circle cx="317.5" cy="80.5" r="2.5" fill="#0E7490" fill-opacity="0.3"/>
<circle cx="332.5" cy="80.5" r="2.5" fill="#0E7490" fill-opacity="0.3"/>
<circle cx="317.5" cy="93.5" r="2.5" fill="#0E7490" fill-opacity="0.3"/>
<circle cx="332.5" cy="93.5" r="2.5" fill="#0E7490" fill-opacity="0.3"/>
<circle cx="347.5" cy="54.5" r="2.5" fill="#0E7490" fill-opacity="0.3"/>
<circle cx="362.5" cy="54.5" r="2.5" fill="#0E7490" fill-opacity="0.3"/>
<circle cx="347.5" cy="67.5" r="2.5" fill="#0E7490" fill-opacity="0.3"/>
<circle cx="362.5" cy="67.5" r="2.5" fill="#0E7490" fill-opacity="0.3"/>
<circle cx="347.5" cy="80.5" r="2.5" fill="#0E7490" fill-opacity="0.3"/>
<circle cx="362.5" cy="80.5" r="2.5" fill="#0E7490" fill-opacity="0.3"/>
<circle cx="347.5" cy="93.5" r="2.5" fill="#0E7490" fill-opacity="0.3"/>
<circle cx="362.5" cy="93.5" r="2.5" fill="#0E7490" fill-opacity="0.3"/>
<circle cx="302.5" cy="54.5" r="2.5" fill="#0E7490" fill-opacity="0.3"/>
<circle cx="302.5" cy="67.5" r="2.5" fill="#0E7490" fill-opacity="0.3"/>
<circle cx="302.5" cy="80.5" r="2.5" fill="#0E7490" fill-opacity="0.3"/>
<circle cx="302.5" cy="93.5" r="2.5" fill="#0E7490" fill-opacity="0.3"/>
<circle cx="317.5" cy="28.5" r="2.5" fill="#0E7490" fill-opacity="0.3"/>
<circle cx="332.5" cy="28.5" r="2.5" fill="#0E7490" fill-opacity="0.3"/>
<circle cx="317.5" cy="41.5" r="2.5" fill="#0E7490" fill-opacity="0.3"/>
<circle cx="332.5" cy="41.5" r="2.5" fill="#0E7490" fill-opacity="0.3"/>
<circle cx="347.5" cy="28.5" r="2.5" fill="#0E7490" fill-opacity="0.3"/>
<circle cx="362.5" cy="28.5" r="2.5" fill="#0E7490" fill-opacity="0.3"/>
<circle cx="347.5" cy="41.5" r="2.5" fill="#0E7490" fill-opacity="0.3"/>
<circle cx="362.5" cy="41.5" r="2.5" fill="#0E7490" fill-opacity="0.3"/>
<circle cx="302.5" cy="41.5" r="2.5" fill="#0E7490" fill-opacity="0.3"/>
<circle cx="317.5" cy="106.5" r="2.5" fill="#0E7490" fill-opacity="0.3"/>
<circle cx="332.5" cy="106.5" r="2.5" fill="#0E7490" fill-opacity="0.3"/>
<circle cx="347.5" cy="106.5" r="2.5" fill="#0E7490" fill-opacity="0.3"/>
<circle cx="362.5" cy="106.5" r="2.5" fill="#0E7490" fill-opacity="0.3"/>
<circle cx="302.5" cy="106.5" r="2.5" fill="#0E7490" fill-opacity="0.3"/>
<circle cx="646.5" cy="54.5" r="2.5" fill="#0E7490" fill-opacity="0.3"/>
<circle cx="646.5" cy="67.5" r="2.5" fill="#0E7490" fill-opacity="0.3"/>
<circle cx="646.5" cy="80.5" r="2.5" fill="#0E7490" fill-opacity="0.3"/>
<circle cx="646.5" cy="93.5" r="2.5" fill="#0E7490" fill-opacity="0.3"/>
<circle cx="631.5" cy="54.5" r="2.5" fill="#0E7490" fill-opacity="0.3"/>
<circle cx="631.5" cy="67.5" r="2.5" fill="#0E7490" fill-opacity="0.3"/>
<circle cx="631.5" cy="80.5" r="2.5" fill="#0E7490" fill-opacity="0.3"/>
<circle cx="631.5" cy="93.5" r="2.5" fill="#0E7490" fill-opacity="0.3"/>
<circle cx="646.5" cy="2.5" r="2.5" fill="#0E7490" fill-opacity="0.3"/>
<circle cx="646.5" cy="15.5" r="2.5" fill="#0E7490" fill-opacity="0.3"/>
<circle cx="646.5" cy="28.5" r="2.5" fill="#0E7490" fill-opacity="0.3"/>
<circle cx="646.5" cy="41.5" r="2.5" fill="#0E7490" fill-opacity="0.3"/>
<circle cx="631.5" cy="2.5" r="2.5" fill="#0E7490" fill-opacity="0.3"/>
<circle cx="631.5" cy="15.5" r="2.5" fill="#0E7490" fill-opacity="0.3"/>
<circle cx="631.5" cy="28.5" r="2.5" fill="#0E7490" fill-opacity="0.3"/>
<circle cx="631.5" cy="41.5" r="2.5" fill="#0E7490" fill-opacity="0.3"/>
<circle cx="646.5" cy="106.5" r="2.5" fill="#0E7490" fill-opacity="0.3"/>
<circle cx="661.5" cy="54.5" r="2.5" fill="#0E7490" fill-opacity="0.3"/>
<circle cx="661.5" cy="67.5" r="2.5" fill="#0E7490" fill-opacity="0.3"/>
<circle cx="661.5" cy="80.5" r="2.5" fill="#0E7490" fill-opacity="0.3"/>
<circle cx="661.5" cy="93.5" r="2.5" fill="#0E7490" fill-opacity="0.3"/>
<circle cx="661.5" cy="2.5" r="2.5" fill="#0E7490" fill-opacity="0.3"/>
<circle cx="661.5" cy="15.5" r="2.5" fill="#0E7490" fill-opacity="0.3"/>
<circle cx="661.5" cy="28.5" r="2.5" fill="#0E7490" fill-opacity="0.3"/>
<circle cx="661.5" cy="41.5" r="2.5" fill="#0E7490" fill-opacity="0.3"/>
<circle cx="661.5" cy="106.5" r="2.5" fill="#0E7490" fill-opacity="0.3"/>
<circle cx="631.5" cy="106.5" r="2.5" fill="#0E7490" fill-opacity="0.3"/>
</svg>
