<svg width="36" height="32" viewBox="0 0 36 32" fill="none" xmlns="http://www.w3.org/2000/svg">
<path d="M25.8969 0.509181L21.0979 5.27671H17.5618C16.607 5.24539 16.1779 5.43662 15.5412 6.02948L10.8685 10.797H6.06951C6.06951 10.797 1.82357 11.7348 1.14424 16.3173C0.4649 20.8998 2.28084 19.0775 1.90197 22.214C1.5231 25.3505 0.00763344 29.7417 0.00763344 29.7417C-0.0656928 31.3198 0.382395 31.728 1.64939 32H5.69065C7.1538 31.6051 7.71789 31.2238 7.83756 29.9926L9.10045 25.7269H16.4252L20.9716 22.3395C21.6945 21.7423 21.9718 21.6905 22.2345 22.0885L25.1391 29.7417C25.7386 30.8994 26.158 31.3847 27.0335 32H33.7268C35.0581 31.3559 35.4556 30.7338 35.4949 29.1144L30.6959 17.321C30.3773 16.6961 30.4532 16.4758 31.0747 16.3173C34.6027 15.5863 35.5216 15.04 36 13.5572V10.0443L34.4845 8.78964V6.02948L28.9278 0.509181C27.6889 -0.150046 27.0219 -0.189127 25.8969 0.509181Z" fill="#2DD4BF"/>
<path d="M15.7937 27.6089H10.237C10.4127 28.6968 10.5112 29.3066 10.9948 29.8672V30.6199C11.3313 31.4064 11.5686 31.5989 12.0051 31.8745H16.1726C16.6349 31.7139 16.7228 31.5569 16.8041 31.2472V30.2435L15.7937 27.6089Z" fill="#2DD4BF"/>
<path d="M18.3195 26.8561H17.8144L19.0773 30.2435C19.5139 31.1852 19.803 31.6257 20.5927 31.8745H23.8762L20.9716 24.5978L18.3195 26.8561Z" fill="#2DD4BF"/>
</svg>
