<svg width="35" height="35" viewBox="0 0 35 35" fill="none" xmlns="http://www.w3.org/2000/svg">
<g clip-path="url(#clip0)">
<path d="M19.0815 35C24.4652 35 29.4025 32.5525 32.6743 28.5212C34.6069 26.1402 32.4995 22.6613 29.5128 23.2302C23.8835 24.3022 18.6934 19.9989 18.6934 14.2893C18.6934 10.9791 20.4748 7.98027 23.3032 6.37082C25.9517 4.8635 25.2855 0.848203 22.2763 0.292373C21.2224 0.0980374 20.1531 0.000174748 19.0815 0C9.4182 0 1.58148 7.83228 1.58148 17.5C1.58148 27.1633 9.41383 35 19.0815 35ZM19.0815 3.28125C19.9691 3.28125 20.8376 3.36335 21.6802 3.519C17.9369 5.64929 15.4122 9.67422 15.4122 14.2893C15.4122 22.0719 22.497 27.9065 30.1266 26.4534C27.5197 29.6655 23.5406 31.7188 19.0815 31.7188C11.2287 31.7188 4.86273 25.3528 4.86273 17.5C4.86273 9.64722 11.2287 3.28125 19.0815 3.28125Z" fill="#F8FAFC"/>
</g>
<defs>
<clipPath id="clip0">
<rect width="35" height="35" fill="white"/>
</clipPath>
</defs>
</svg>
