<svg width="35" height="35" viewBox="0 0 35 35" fill="none" xmlns="http://www.w3.org/2000/svg">
<g clip-path="url(#clip0)">
<path d="M17.5 10.9375C13.8838 10.9375 10.9375 13.8838 10.9375 17.5C10.9375 21.1162 13.8838 24.0625 17.5 24.0625C21.1162 24.0625 24.0625 21.1162 24.0625 17.5C24.0625 13.8838 21.1162 10.9375 17.5 10.9375ZM34.3438 16.4404L27.8701 13.207L30.1602 6.34375C30.4678 5.41406 29.5859 4.53223 28.6631 4.84668L21.7998 7.13672L18.5596 0.65625C18.1221 -0.21875 16.8779 -0.21875 16.4404 0.65625L13.207 7.12988L6.33691 4.83984C5.40723 4.53223 4.52539 5.41406 4.83984 6.33691L7.12988 13.2002L0.65625 16.4404C-0.21875 16.8779 -0.21875 18.1221 0.65625 18.5596L7.12988 21.793L4.83984 28.6631C4.53223 29.5928 5.41406 30.4746 6.33691 30.1602L13.2002 27.8701L16.4336 34.3438C16.8711 35.2188 18.1152 35.2188 18.5527 34.3438L21.7861 27.8701L28.6494 30.1602C29.5791 30.4678 30.4609 29.5859 30.1465 28.6631L27.8564 21.7998L34.3301 18.5664C35.2188 18.1221 35.2188 16.8779 34.3438 16.4404ZM23.6865 23.6865C20.2754 27.0977 14.7246 27.0977 11.3135 23.6865C7.90234 20.2754 7.90234 14.7246 11.3135 11.3135C14.7246 7.90234 20.2754 7.90234 23.6865 11.3135C27.0977 14.7246 27.0977 20.2754 23.6865 23.6865Z" fill="#F8FAFC"/>
</g>
<defs>
<clipPath id="clip0">
<rect width="35" height="35" fill="white"/>
</clipPath>
</defs>
</svg>
